,
Brought to you by  http://www.scenetime.com/signup.php
 
 Hottest scene tracker on the net !!!   
 
No fake torrents from scenebalance 
shame on those who comment fake before downloading my torrents

    seed back for speed


 



...................................NFO:.................................................
                   _..._                          _..._    
                .-'_..._''.                    .-'_..._''.  
        .--.  .' .'      '.\                 .' .'      '.\
        |__| / .'                           / .'            
    .|  .--.. '               .|           . '              
  .' |_ |  || |             .' |_     __   | |              
.'     ||  || |           .'     | .:--.'. | |              
'--.  .-'|  |. '          '--.  .-'/ |   \ |. '              
  |  |  |  | \ '.          .|  |  `" __ | | \ '.          .
  |  |  |__|  '. `._____.-'/|  |   .'.''| |  '. `._____.-'/
  |  '.'        `-.______ / |  '.'/ /   | |_   `-.______ /  
  |   /                  `  |   / \ \._,\ '/            `  
  `'-'                      `'-'   `--'  `"                

_____ _____  ____   ____  ____  __  _  _____  ____
| ()_)| () )| ===| (_ (_`| ===||  \| ||_   _|(_ (_`
|_|   |_|\_\|____|.__)__)|____||_|\__|  |_| .__)__)



In Love And War DVDRip 1996 (REQ) TiCTaC
 
http://www.imdb.com/title/tt0116621/

5.6

Reporter Ernest Hemingway is an ambulance driver in Italy during World War I. While bravely risking his life in the line of duty, he is injured and ends up in the hospital, where he falls in love with his nurse, Agnes von Kurowsky.




Cast

Mackenzie Astin 	Mackenzie Astin 	... 	
Henry Villard
Chris O'Donnell 	Chris O'Donnell 	... 	
Ernest 'Ernie' Hemingway
Margot Steinberg 	Margot Steinberg 	... 	
Mabel 'Rosie' Rose
Sandra Bullock 	Sandra Bullock 	... 	
Agnes von Kurowsky
Alan Bennett 	Alan Bennett 	... 	
Porter
Ingrid Lacey 	Ingrid Lacey 	... 	
Elsie 'Mac' MacDonald
Terence Sach 	Terence Sach 	... 	
Porter
Carlo Croccolo 	Carlo Croccolo 	... 	
Town Mayor
Tara Hugo 	Tara Hugo 	... 	
Katherine 'Gumshoe' De Long
Gigi Vivan 	Gigi Vivan 	... 	
Italian Child
Giuseppe Bonato 	Giuseppe Bonato 	... 	
Grandfather
Allegra Di Carpegna 	Allegra Di Carpegna 	... 	
Loretta Cavanaugh
Diane Witter 	Diane Witter 	... 	
Adele Brown
Mindy Lee Raskin 	Mindy Lee Raskin 	... 	
Charlotte Anne Miller
Tracy Hostmyer 	Tracy Hostmyer 	... 	



Genres:
Biography | Drama | Romance | War

Country:
USA
Language:
English | Italian
Release Date:
24 January 1997 (USA) See more 

Runtime:
113 min

Color

General
Complete name                    : G:\In Love And War DVDRip 1996 (REQ) TiCTaC\In Love And War DVDRip 1996 (REQ) TiCTaC.avi
Format                           : AVI
Format/Info                      : Audio Video Interleave
File size                        : 1.23 GiB
Duration                         : 1h 48mn
Overall bit rate                 : 1 624 Kbps
Writing application              : Lavf52.13.0
Writing library                  : VirtualDub build 32842/release

Video
ID                               : 0
Format                           : MPEG-4 Visual
Format profile                   : Simple@L1
Format settings, BVOP            : No
Format settings, QPel            : No
Format settings, GMC             : No warppoints
Format settings, Matrix          : Default (H.263)
Codec ID                         : XVID
Codec ID/Hint                    : XviD
Duration                         : 1h 48mn
Bit rate                         : 1 420 Kbps
Width                            : 720 pixels
Height                           : 432 pixels
Display aspect ratio             : 16:9
Frame rate                       : 25.000 fps
Resolution                       : 8 bits
Colorimetry                      : 4:2:0
Scan type                        : Progressive
Bits/(Pixel*Frame)               : 0.183
Stream size                      : 1.07 GiB (87%)
Writing library                  : Lavc51.54.0

Audio
ID                               : 1
Format                           : MPEG Audio
Format version                   : Version 1
Format profile                   : Layer 3
Mode                             : Joint stereo
Format_Settings_ModeExtension    : MS Stereo
Codec ID                         : 55
Codec ID/Hint                    : MP3
Duration                         : 1h 48mn
Bit rate mode                    : Constant
Bit rate                         : 192 Kbps
Channel(s)                       : 2 channels
Sampling rate                    : 44.1 KHz
Stream size                      : 148 MiB (12%)
Alignment                        : Aligned on interleaves
Interleave, duration             : 26 ms (0.65 video frame)
Interleave, preload duration     : 522 ms
Writing library                  : LAME3.98 (beta)